<svg xmlns="http://www.w3.org/2000/svg" viewBox="0 0 512 512" id="Plan"><g fill="#8a8e91" class="color000000 svgShape"><path d="M311.377,38H71.838A50.02,50.02,0,0,0,22,88.118v265.75a9.926,9.926,0,0,0,2.743,6.965L131.492,470.906A9.968,9.968,0,0,0,138.627,474h172.75C338.947,474,361,451.452,361,423.882V88.118C361,60.548,338.947,38,311.377,38ZM129,439.223,55.481,364h63.146c5.514,0,10.373,4.354,10.373,9.868Zm212-15.341A29.814,29.814,0,0,1,311.49,454H149V373.868C149,357.326,135.169,344,118.627,344H42V88.118A30,30,0,0,1,71.838,58H311.377a29.815,29.815,0,0,1,29.624,30V423.882Z" fill="#8a8e91" class="color000000 svgShape"></path><path d="M289.787,168H99.587a10,10,0,1,0,0,20h190.2a10,10,0,0,0,0-20Z" fill="#8a8e91" class="color000000 svgShape"></path><path d="M289.787,228H99.587a10,10,0,1,0,0,20h190.2a10,10,0,1,0,0-20Z" fill="#8a8e91" class="color000000 svgShape"></path><path d="M289.787,288H99.587a10,10,0,1,0,0,20h190.2a10,10,0,1,0,0-20Z" fill="#8a8e91" class="color000000 svgShape"></path><path d="M99.587,132H187.4a10,10,0,0,0,0-20H99.587a10,10,0,1,0,0,20Z" fill="#8a8e91" class="color000000 svgShape"></path><path d="M445.45,47.821A44.567,44.567,0,0,0,400.94,92.3l-.2,302a10,10,0,0,0,1.128,4.62l34.711,66.759a10,10,0,0,0,17.744,0l34.711-66.759a10,10,0,0,0,1.128-4.62l-.2-302A44.568,44.568,0,0,0,445.45,47.821ZM470,149H420.9l.006-10h49.085Zm.014,20,.141,215H420.747l.143-215ZM445.452,67.821a24.545,24.545,0,0,1,24.511,24.5L469.98,119H420.923l.017-26.682A24.545,24.545,0,0,1,445.452,67.821Zm0,371.261L427.211,404h36.48Z" fill="#8a8e91" class="color000000 svgShape"></path></g></svg>