<svg xmlns="http://www.w3.org/2000/svg" viewBox="0 0 24 24" id="UpArrow"><g fill="#8a8e91" class="color000000 svgShape"><g fill="#8a8e91" class="color000000 svgShape"><path d="M6.63 11.61 12 7.29l5.37 4.48A1 1 0 0 0 18 12a1 1 0 0 0 .77-.36 1 1 0 0 0-.13-1.41l-6-5a1 1 0 0 0-1.27 0l-6 4.83a1 1 0 0 0-.15 1.41 1 1 0 0 0 1.41.14z" fill="#8a8e91" class="color000000 svgShape"></path><path d="M12.64 12.23a1 1 0 0 0-1.27 0l-6 4.83a1 1 0 0 0-.15 1.41 1 1 0 0 0 1.41.15L12 14.29l5.37 4.48A1 1 0 0 0 18 19a1 1 0 0 0 .77-.36 1 1 0 0 0-.13-1.41z" fill="#8a8e91" class="color000000 svgShape"></path></g></g></svg>